<?xml version="1.0" encoding="UTF-8" standalone="no"?>
<!-- Created with Inkscape (http://www.inkscape.org/) -->

<svg
   xmlns:dc="http://purl.org/dc/elements/1.1/"
   xmlns:cc="http://creativecommons.org/ns#"
   xmlns:rdf="http://www.w3.org/1999/02/22-rdf-syntax-ns#"
   xmlns:svg="http://www.w3.org/2000/svg"
   xmlns="http://www.w3.org/2000/svg"
   xmlns:xlink="http://www.w3.org/1999/xlink"
   xmlns:sodipodi="http://sodipodi.sourceforge.net/DTD/sodipodi-0.dtd"
   xmlns:inkscape="http://www.inkscape.org/namespaces/inkscape"
   height="112.13656pt"
   width="180pt"
   sodipodi:docname="spb-pig-logo.svg"
   inkscape:version="0.91 r13725"
   sodipodi:version="0.32"
   id="svg2"
   version="1.0"
   inkscape:export-filename="spb-pig-logo.png"
   inkscape:export-xdpi="90"
   inkscape:export-ydpi="90">
  <title
     id="title4152">Spb Python Interest Group Logo</title>
  <sodipodi:namedview
     inkscape:snap-intersection-paths="true"
     inkscape:window-maximized="1"
     inkscape:snap-midpoints="true"
     inkscape:guide-bbox="true"
     showguides="true"
     inkscape:snap-global="false"
     inkscape:object-nodes="true"
     showgrid="true"
     units="mm"
     height="40mm"
     width="210mm"
     inkscape:current-layer="layer1"
     inkscape:window-y="-8"
     inkscape:window-x="-8"
     inkscape:cy="-28.957434"
     inkscape:cx="-144.81627"
     inkscape:zoom="1.2800001"
     id="base"
     pagecolor="#ffffff"
     bordercolor="#666666"
     borderopacity="1.0"
     objecttolerance="10.0"
     gridtolerance="10.0"
     guidetolerance="10.0"
     inkscape:pageopacity="0.0"
     inkscape:pageshadow="2"
     inkscape:window-width="1920"
     inkscape:window-height="1017"
     fit-margin-top="10"
     fit-margin-left="10"
     fit-margin-right="10"
     fit-margin-bottom="10" />
  <metadata
     id="metadata371">
    <rdf:RDF>
      <cc:Work
         rdf:about="">
        <dc:format>image/svg+xml</dc:format>
        <dc:type
           rdf:resource="http://purl.org/dc/dcmitype/StillImage" />
        <dc:title>Spb Python Interest Group Logo</dc:title>
        <cc:license
           rdf:resource="http://creativecommons.org/licenses/by-nc-sa/4.0/" />
      </cc:Work>
    </rdf:RDF>
  </metadata>
  <defs
     id="defs4">
    <linearGradient
       id="linearGradient4689-8-1-7">
      <stop
         style="stop-color:#5a9fd4;stop-opacity:1;"
         offset="0"
         id="stop4691-2-4-4" />
      <stop
         style="stop-color:#306998;stop-opacity:1;"
         offset="1"
         id="stop4693-4-2-0" />
    </linearGradient>
    <linearGradient
       inkscape:collect="always"
       xlink:href="#linearGradient4671-0-2-4"
       id="linearGradient3393-9"
       gradientUnits="userSpaceOnUse"
       gradientTransform="matrix(2.5362078,0,0,2.5606934,209.30245,2765.5928)"
       x1="150.96111"
       y1="192.35176"
       x2="112.03144"
       y2="137.27299" />
    <linearGradient
       id="linearGradient4671-0-2-4">
      <stop
         style="stop-color:#ffd43b;stop-opacity:1;"
         offset="0"
         id="stop4673-9-2-8" />
      <stop
         style="stop-color:#ffe873;stop-opacity:1"
         offset="1"
         id="stop4675-4-1-8" />
    </linearGradient>
    <linearGradient
       inkscape:collect="always"
       xlink:href="#linearGradient4689-8-1-7"
       id="linearGradient3502"
       gradientUnits="userSpaceOnUse"
       gradientTransform="matrix(2.5362078,0,0,2.5606934,209.30245,2765.5928)"
       x1="26.648937"
       y1="20.603781"
       x2="135.66525"
       y2="114.39767" />
  </defs>
  <g
     transform="matrix(1,0,0,0.95333167,614.17826,567.28895)"
     id="g3998" />
  <g
     id="g4084"
     transform="translate(680.093,-1.8146509)" />
  <g
     inkscape:groupmode="layer"
     id="layer1"
     inkscape:label="Layer"
     style="display:inline"
     transform="translate(-14.062499,-1.8146509)">
    <g
       style="display:inline"
       inkscape:export-ydpi="90"
       inkscape:export-xdpi="90"
       inkscape:export-filename="D:\Sketch\temp\PySPB-logo-6.png"
       transform="matrix(0.14949429,0,0,0.14949429,510.07668,-135.90805)"
       id="g4710">
      <g
         id="g4712">
        <path
           style="fill:#306998;fill-opacity:1;stroke:none"
           d="m -2311.9245,1657.1538 0,61.3437 415.4361,0 0,-106.1562 0,-39.1954 -338.9375,-452.0858 -19.7187,14.1874 -8.0313,-0.9374 0.3438,0 102.375,-88.1563 -1.5,-2.1875 -30.4219,25.4218 -30.0378,-3.3582 -1.6563,2.7813 28.7878,3.0457 -73.9541,62.1981 -193.9667,-23.2187 69.039,-70.8788 27.7854,3.4285 2.7187,-3.5938 -26.8791,-3.4597 28.0225,-27.9912 -3.219,-3.4688 -104.0625,105.0938 -9.8125,-19.4375 -17.375,16.25 36.375,74.9375 0.125,0.25 c 58.7593,125.0888 117.4326,257.7995 148.5641,391.1796 m -508.2221,0 c 23.5319,-133.413 97.0371,-272.0125 158.158,-406.6171 l -18.6875,-20.75 -7.6562,16.2187 -3,-0.5 -0.031,-0.031 -90.2188,-90.9688 -1.3125,2.9063 22.3944,22.9155 -27.4659,-6.9335 2.0312,3.0625 28.8097,7.2147 59.7759,61.2095 -228.7015,-39.6874 -66.3154,-70.3154 22.0918,4.2753 -1.2813,-2.594 -23.498,-4.494 -23.1222,-23.6847 -1.4375,3.0626 88.004,92.8488 -10.8991,-1.8539 -14.1361,-16.2137 -277.6875,470.9296 0,39.1954 0,106.1562 414.1855,0 0,-61.3437"
           id="path4714"
           inkscape:connector-curvature="0"
           sodipodi:nodetypes="ccccccccccccccccccccccccccccccccccccccccccccccccccccccccc" />
        <path
           sodipodi:nodetypes="ccccc"
           inkscape:connector-curvature="0"
           id="path4716"
           d="m -2943.815,1124.9624 273.3799,46.8237 -210.7147,401.3598 -310.1293,0 z"
           style="color:#000000;display:inline;overflow:visible;visibility:visible;fill:#2f5f86;fill-opacity:1;fill-rule:nonzero;stroke:none;stroke-width:6;marker:none;enable-background:accumulate" />
        <path
           sodipodi:nodetypes="ccccc"
           inkscape:connector-curvature="0"
           id="path4718"
           d="m -2253.7099,1138.2792 316.2496,434.8667 -295.1734,0 -233.0304,-458.6867 z"
           style="color:#000000;display:inline;overflow:visible;visibility:visible;fill:#3a76a6;fill-opacity:1;fill-rule:nonzero;stroke:none;stroke-width:6;marker:none;enable-background:accumulate" />
      </g>
      <g
         transform="matrix(1.0798281,0,0,1.0798281,-3135.026,-1828.1233)"
         style="display:inline"
         id="g4720">
        <path
           sodipodi:nodetypes="ccccccccccccccccccccccccc"
           inkscape:connector-curvature="0"
           id="path4722"
           d="m 513.96875,2806.6562 c -33.51955,1.5327 -69.38718,3.8741 -98.03125,22.9688 -18.18965,14.1986 -23.09849,38.823 -21.68632,60.7811 -0.09,15.1467 -0.42221,30.3346 0.96757,45.4377 -24.5245,-0.2445 -50.99354,-2.7384 -73.8125,8.1874 -26.4476,13.047 -44.64772,39.8193 -49.34375,68.7813 -12.1439,50.3209 -8.8037,105.2443 13.0625,152.4375 11.74826,22.6097 35.28487,39.5881 61.28125,39.5938 15.9403,0.9466 31.89508,-0.3559 47.84375,-0.063 0.49341,23.2352 -1.81926,47.0649 3.3125,69.875 9.9671,28.4724 38.26521,45.1768 66.17404,52.7957 55.33185,16.8978 118.81903,11.9172 168.10721,-19.1394 19.49555,-14.1732 31.06567,-38.7236 28.03125,-62.875 -0.25123,-13.6015 0.73565,-27.2583 -0.8125,-40.8125 16.3268,0.544 32.79836,0.3821 49.18621,0.074 13.38857,-0.03 27.20462,-2.7509 37.75129,-11.3242 18.66639,-13.7188 27.0636,-36.5617 34.4062,-57.7188 13.5295,-41.6522 11.711,-87.04 0.3126,-128.9062 -6.1822,-25.772 -18.57917,-53.221 -43.7188,-65.1875 -22.06309,-10.0901 -47.1523,-4.8495 -70.625,-5.9063 -7.05736,2.0259 -7.06535,-3.1646 -6.46875,-8.6874 -0.32865,-20.4071 1.31999,-41.3442 -3.125,-61.3438 -10.32575,-31.9761 -42.55434,-52.8757 -75.29073,-55.388 -22.27034,-3.2566 -44.9904,-4.4476 -67.52177,-3.5808 z"
           style="fill:#ffffff;fill-opacity:1" />
        <path
           id="path4724"
           d="m 524.4902,2818.3569 c -20.66509,0.095 -40.40008,1.8584 -57.76496,4.9314 -51.15418,9.0373 -60.44166,27.9531 -60.44166,62.837 l 0,46.0709 120.88376,0 0,15.3572 -120.88376,0 -45.36663,0 c -35.13237,0 -65.89512,21.1164 -75.51713,61.2871 -11.09899,46.0451 -11.59131,74.7777 0,122.8562 8.59272,35.7879 29.11354,61.2874 64.24592,61.2874 l 41.56237,0 0,-55.2289 c 0,-39.8997 34.52237,-75.0947 75.51713,-75.0947 l 120.74309,0 c 33.61031,0 60.44165,-27.6735 60.44165,-61.4281 l 0,-115.1071 c 0,-32.7604 -27.63656,-57.3695 -60.44165,-62.837 -20.76608,-3.4571 -42.31258,-5.0274 -62.97813,-4.9314 z m -65.37303,37.0544 c 12.4867,0 22.68354,10.3632 22.68354,23.106 0,12.6972 -10.19684,22.9648 -22.68354,22.9648 -12.53089,0 -22.68309,-10.2676 -22.68309,-22.9648 0,-12.7428 10.1522,-23.106 22.68309,-23.106 z"
           style="fill:url(#linearGradient3502);fill-opacity:1"
           inkscape:connector-curvature="0" />
        <path
           id="path4726"
           d="m 662.98546,2947.5534 0,53.679 c 0,41.6169 -35.28296,76.6442 -75.51713,76.6442 l -120.74309,0 c -33.07335,0 -60.44166,28.3066 -60.44166,61.4281 l 0,115.1073 c 0,32.7602 28.48732,52.0294 60.44166,61.4282 38.26531,11.2514 74.95942,13.2848 120.74309,0 30.43273,-8.8114 60.44165,-26.5442 60.44165,-61.4282 l 0,-46.0711 -120.74264,0 0,-15.3568 120.74264,0 60.44211,0 c 35.13237,0 48.22366,-24.5054 60.44161,-61.2874 12.6211,-37.8663 12.0841,-74.2809 0,-122.8562 -8.68195,-34.9742 -25.26461,-61.2871 -60.44161,-61.2871 l -45.36663,0 z M 595.0764,3239.055 c 12.53133,1e-4 22.68309,10.2677 22.68309,22.9651 0,12.7426 -10.15176,23.106 -22.68309,23.106 -12.4867,0 -22.68354,-10.3634 -22.68354,-23.106 0,-12.6974 10.19684,-22.9651 22.68354,-22.9651 z"
           style="fill:url(#linearGradient3393-9);fill-opacity:1"
           inkscape:connector-curvature="0" />
      </g>
    </g>
  </g>
</svg>
